<?xml version="1.0" standalone="no"?><!DOCTYPE svg PUBLIC "-//W3C//DTD SVG 1.1//EN" "http://www.w3.org/Graphics/SVG/1.1/DTD/svg11.dtd"><svg t="1547106040463" class="icon" style="" viewBox="0 0 1024 1024" version="1.1" xmlns="http://www.w3.org/2000/svg" p-id="912" xmlns:xlink="http://www.w3.org/1999/xlink" width="200" height="200"><defs><style type="text/css"></style></defs><path d="M998.84905869 948.32766068l-231.0978799-231.0978799C830.9922498 642.5552958 869.29418661 546.08586541 869.29418661 440.54116268c0-236.77885747-191.97416648-428.75302395-428.75302393-428.75302394S11.78813874 203.7623052 11.78813874 440.54116268s191.97416648 428.75302395 428.75302394 428.75302393c105.54470271 0 202.01413311-38.3019368 276.6886181-101.5072784l231.0978799 231.09787989c15.64948537 15.64948537 39.62392529 17.00720328 53.59412801 3.03700059C1015.85626196 987.95158598 1014.49854405 963.97714607 998.84905869 948.32766068zM440.54116268 797.83534929C243.20758341 797.83534929 83.24697605 637.87474194 83.24697605 440.54116268S243.20758341 83.24697605 440.54116268 83.24697605s357.29418661 159.96060736 357.29418661 357.29418663S637.87474194 797.83534929 440.54116268 797.83534929z" fill="#ffffff" p-id="913"></path></svg>